# xmcd
#
# Track frame offsets:
#	150
#	11393
#	21233
#	29826
#	39091
#	51720
#	62524
#	74476
#	86844
#	98793
#	106836
#	120054
#	133133
#	144376
#	154206
#	162799
#	172064
#	184702
#	195518
#	207463
#	219812
#	231761
#	239794
#	253005
#
# Disc length: 3545 seconds
#
# Revision: 1
# Processed by: cddbd v1.5.2PL0 Copyright (c) Steve Scherf et al.
# Submitted via: audiograbber 1.83.01
#
DISCID=540dd718
DTITLE=david herzhaft - Harmonica country vol1
DYEAR=2005
DGENRE=Country
TTITLE0=Old joe clark
TTITLE1=Fisher hornpipe
TTITLE2=Harmonica roll
TTITLE3=Salt creek
TTITLE4=Enzofolk
TTITLE5=Sally goodin'
TTITLE6=Cp cajun
TTITLE7=Red haired boy
TTITLE8=Bank of the ohio
TTITLE9=John henry
TTITLE10=Amazing grace
TTITLE11=The mac
TTITLE12=Old joe clark - playback
TTITLE13=Fisher hornpipe - playback
TTITLE14=Harmonica roll - playback
TTITLE15=Salt creek - playback
TTITLE16=Enzofolk - playback
TTITLE17=Sally goodin' - playback
TTITLE18=Cp cajun - playback
TTITLE19=Red haired boy - playback
TTITLE20=Bank of the ohio - playback
TTITLE21=John henry - playback
TTITLE22=Amazing grace - playback
TTITLE23=The mac - playback
EXTD=
EXTT0=
EXTT1=
EXTT2=
EXTT3=
EXTT4=
EXTT5=
EXTT6=
EXTT7=
EXTT8=
EXTT9=
EXTT10=
EXTT11=
EXTT12=
EXTT13=
EXTT14=
EXTT15=
EXTT16=
EXTT17=
EXTT18=
EXTT19=
EXTT20=
EXTT21=
EXTT22=
EXTT23=
PLAYORDER=
